<svg width="171" height="45" viewBox="0 0 171 45" fill="none" xmlns="http://www.w3.org/2000/svg">
<path fill-rule="evenodd" clip-rule="evenodd" d="M157.32 1.18018H150.23V34.3602H159.1C162.31 34.3602 164.92 33.7702 166.95 32.4102C169.57 30.7202 170.83 28.1902 170.83 24.7302C170.83 22.1102 170.07 20.0902 168.55 18.4002C167.11 16.8802 165.43 16.1202 163.4 16.0402C164.75 15.9502 165.85 15.2802 166.86 14.0102C167.79 12.6602 168.3 11.1402 168.3 9.37018C168.3 5.99018 166.86 3.63018 164.08 2.36018C162.39 1.60018 160.1 1.18018 157.32 1.18018ZM154.28 4.81018H158C160.28 4.81018 161.88 5.23018 162.9 6.25018C163.66 7.01018 164.08 8.19018 164.08 9.46018C164.08 11.3202 163.49 12.7502 162.31 13.6802C161.21 14.5202 159.78 15.0302 157.92 15.0302H154.29V4.81018H154.28ZM166.69 24.7402C166.69 26.4302 166.35 27.7802 165.76 28.7902C164.07 30.2202 161.79 30.9902 159.09 30.9902H154.28V18.4902H159.01C161.37 18.4902 163.23 19.0802 164.58 20.1002C166.02 21.1102 166.69 22.6302 166.69 24.7402Z" fill="#009035"/>
<path fill-rule="evenodd" clip-rule="evenodd" d="M141.78 34.37H145.92V0L123.88 26.77V1.18H119.83V35.71L141.78 8.94V34.37Z" fill="#009035"/>
<path fill-rule="evenodd" clip-rule="evenodd" d="M84.5298 0.339844L82.7598 4.38984L84.5298 8.52984C86.2998 12.4998 88.0798 16.6398 89.8498 20.5998C90.0198 20.9398 90.0998 21.2798 90.2698 21.5298L90.6098 22.3698H74.9099L69.5898 34.3598H73.1398L77.1898 25.0698H91.7999L95.8498 34.3598H99.3998L84.5298 0.339844Z" fill="#009035"/>
<path fill-rule="evenodd" clip-rule="evenodd" d="M66.6301 4.81018V1.18018H48.3901V34.3602H66.6301V30.9802H52.5301V17.6502H66.1201V14.1002H52.5401V4.81018H66.6301Z" fill="#009035"/>
<path fill-rule="evenodd" clip-rule="evenodd" d="M94.5 4.80977H103.11V34.4498H107.16V4.80977H115.77V1.25977H94.5V4.80977Z" fill="#009035"/>
<path fill-rule="evenodd" clip-rule="evenodd" d="M4.06977 1.18018H0.00976562V34.3602H4.05977V18.7502L17.8198 34.3702H22.6398L7.01977 17.3102L22.3898 1.18018H17.8298L4.06977 16.2102V1.18018Z" fill="#009035"/>
<path fill-rule="evenodd" clip-rule="evenodd" d="M41.3901 2.70018C39.7901 1.68018 37.6801 1.18018 34.9701 1.18018H25.6001V34.3602H29.7401V19.2502H35.0601C37.6801 19.2502 39.7901 18.7502 41.3901 17.8202C41.8101 17.5702 42.1501 17.3102 42.4901 17.0602C44.2601 15.4602 45.1901 13.2602 45.1901 10.3102C45.1901 7.27018 44.2601 4.99018 42.4901 3.56018C42.1501 3.21018 41.8101 2.87018 41.3901 2.70018ZM34.8901 4.81018C36.9201 4.81018 38.3501 5.23018 39.4501 6.08018C40.4601 6.93018 41.0601 8.36018 41.0601 10.3002C41.0601 12.5002 40.3001 14.1002 38.7801 14.9402C37.8501 15.4502 36.5801 15.7802 34.9001 15.7802H29.7501V4.81018H34.8901Z" fill="#009035"/>
<path fill-rule="evenodd" clip-rule="evenodd" d="M70.77 19.92H86.81L78.79 1.52002L70.77 19.92Z" fill="#E30016"/>
<path fill-rule="evenodd" clip-rule="evenodd" d="M0 44.5102V40.2902H1.36C1.88 40.2902 2.22 40.3102 2.37 40.3602C2.61 40.4202 2.81 40.5602 2.97 40.7702C3.14 40.9802 3.22 41.2602 3.22 41.5902C3.22 41.8502 3.17 42.0602 3.08 42.2402C2.99 42.4202 2.87 42.5502 2.72 42.6502C2.58 42.7502 2.43 42.8202 2.28 42.8502C2.08 42.8902 1.78 42.9102 1.4 42.9102H0.85V44.5002H0V44.5102ZM0.85 41.0002V42.2002H1.31C1.65 42.2002 1.87 42.1802 1.98 42.1302C2.09 42.0902 2.18 42.0202 2.25 41.9202C2.32 41.8302 2.34 41.7202 2.34 41.5902C2.34 41.4302 2.3 41.3102 2.21 41.2102C2.12 41.1102 2.01 41.0502 1.87 41.0202C1.77 41.0102 1.57 41.0002 1.26 41.0002H0.85ZM6.46 44.5102V40.2902H9.58V41.0002H7.32V41.9302H9.43V42.6402H7.32V43.7802H9.67V44.4902H6.46V44.5102ZM12.94 40.2902H13.79V42.0902C13.98 42.0702 14.11 42.0202 14.18 41.9402C14.25 41.8602 14.35 41.6402 14.49 41.2802C14.67 40.8302 14.85 40.5402 15.02 40.4302C15.19 40.3202 15.48 40.2702 15.87 40.2702C15.89 40.2702 15.93 40.2702 15.99 40.2702V40.9002H15.87C15.69 40.9002 15.57 40.9202 15.49 40.9602C15.41 41.0002 15.35 41.0702 15.3 41.1602C15.25 41.2502 15.17 41.4302 15.08 41.7002C15.03 41.8502 14.97 41.9702 14.91 42.0702C14.85 42.1702 14.75 42.2602 14.59 42.3502C14.78 42.4002 14.94 42.5102 15.06 42.6802C15.18 42.8402 15.32 43.0702 15.47 43.3702L16.04 44.5202H15.04L14.54 43.4302C14.53 43.4202 14.52 43.3902 14.49 43.3402C14.48 43.3202 14.45 43.2602 14.38 43.1402C14.27 42.9302 14.18 42.8002 14.11 42.7502C14.04 42.7002 13.94 42.6702 13.79 42.6702V44.5102H12.94V40.2902ZM19.36 40.2902H22.31V44.5102H21.46V41.0002H20.19V42.8002C20.19 43.3202 20.18 43.6802 20.14 43.8802C20.1 44.0802 20.02 44.2402 19.89 44.3602C19.76 44.4802 19.55 44.5302 19.27 44.5302C19.17 44.5302 18.99 44.5202 18.73 44.5002V43.8402H18.92C19.1 43.8402 19.22 43.8202 19.28 43.7702C19.34 43.7202 19.37 43.6102 19.37 43.4202V42.6902L19.36 40.2902ZM29.52 44.5102H28.6L28.24 43.5502H26.55L26.2 44.5102H25.3L26.94 40.2902H27.84L29.52 44.5102ZM27.96 42.8402L27.37 41.2802L26.8 42.8402H27.96ZM32.5 44.5102V40.2902H33.78L34.53 43.1702L35.28 40.2902H36.56V44.5102H35.77V41.1902L34.94 44.5102H34.12L33.29 41.1902V44.5102H32.5ZM39.94 44.5102V40.2902H40.8V41.9502H42.46V40.2902H43.31V44.5102H42.46V42.6702H40.8V44.5102H39.94ZM46.56 42.4202C46.56 41.9902 46.63 41.6302 46.75 41.3402C46.85 41.1302 46.98 40.9302 47.15 40.7602C47.31 40.5902 47.49 40.4602 47.69 40.3802C47.95 40.2702 48.26 40.2202 48.6 40.2202C49.22 40.2202 49.72 40.4102 50.09 40.8002C50.46 41.1902 50.65 41.7202 50.65 42.4102C50.65 43.0902 50.47 43.6302 50.1 44.0102C49.73 44.4002 49.23 44.5902 48.61 44.5902C47.98 44.5902 47.49 44.4002 47.11 44.0202C46.74 43.6202 46.56 43.1002 46.56 42.4202ZM47.43 42.3902C47.43 42.8702 47.54 43.2302 47.76 43.4802C47.98 43.7302 48.26 43.8502 48.6 43.8502C48.94 43.8502 49.22 43.7302 49.44 43.4802C49.66 43.2402 49.77 42.8702 49.77 42.3802C49.77 41.9002 49.66 41.5402 49.45 41.3002C49.24 41.0602 48.96 40.9502 48.6 40.9502C48.25 40.9502 47.97 41.0702 47.75 41.3102C47.54 41.5502 47.43 41.9102 47.43 42.3902ZM53.75 43.3802V42.5702H55.34V43.3802H53.75ZM58.34 40.2902H60.03C60.37 40.2902 60.61 40.3002 60.78 40.3302C60.94 40.3602 61.09 40.4202 61.22 40.5002C61.35 40.5902 61.45 40.7102 61.54 40.8502C61.63 41.0002 61.67 41.1602 61.67 41.3402C61.67 41.5402 61.61 41.7202 61.51 41.8802C61.4 42.0402 61.26 42.1702 61.08 42.2502C61.33 42.3302 61.53 42.4502 61.67 42.6302C61.81 42.8102 61.88 43.0302 61.88 43.2702C61.88 43.4602 61.83 43.6502 61.74 43.8302C61.65 44.0102 61.53 44.1602 61.38 44.2702C61.22 44.3802 61.04 44.4502 60.81 44.4702C60.66 44.4902 60.32 44.5002 59.78 44.5002H58.34V40.2902V40.2902ZM59.2 40.9902V41.9602H59.75C60.08 41.9602 60.29 41.9602 60.37 41.9502C60.52 41.9302 60.63 41.8802 60.71 41.8002C60.8 41.7202 60.84 41.6102 60.84 41.4702C60.84 41.3402 60.8 41.2402 60.73 41.1502C60.66 41.0702 60.55 41.0202 60.41 41.0102C60.32 41.0002 60.08 40.9902 59.68 40.9902H59.2ZM59.2 42.6602V43.7902H59.99C60.3 43.7902 60.49 43.7802 60.57 43.7702C60.7 43.7402 60.8 43.6902 60.88 43.6002C60.96 43.5102 61 43.3902 61 43.2502C61 43.1202 60.97 43.0102 60.91 42.9302C60.85 42.8402 60.76 42.7802 60.65 42.7302C60.54 42.6902 60.28 42.6702 59.9 42.6702H59.2V42.6602ZM65.14 40.2902H65.93V43.1002L67.64 40.2902H68.49V44.5102H67.7V41.7502L65.99 44.5102H65.14V40.2902V40.2902ZM71.9 44.5102V40.2902H73.27C73.78 40.2902 74.12 40.3102 74.28 40.3602C74.52 40.4202 74.73 40.5602 74.89 40.7702C75.05 40.9802 75.13 41.2602 75.13 41.5902C75.13 41.8502 75.09 42.0602 74.99 42.2402C74.9 42.4202 74.78 42.5502 74.63 42.6502C74.48 42.7502 74.34 42.8202 74.19 42.8502C73.99 42.8902 73.69 42.9102 73.31 42.9102H72.76V44.5002H71.9V44.5102ZM72.75 41.0002V42.2002H73.22C73.55 42.2002 73.77 42.1802 73.89 42.1302C74 42.0902 74.09 42.0202 74.15 41.9202C74.21 41.8302 74.25 41.7202 74.25 41.5902C74.25 41.4302 74.2 41.3102 74.11 41.2102C74.02 41.1102 73.91 41.0502 73.77 41.0202C73.67 41.0002 73.47 40.9902 73.16 40.9902H72.75V41.0002ZM78.1 42.4202C78.1 41.9902 78.17 41.6302 78.3 41.3402C78.39 41.1302 78.53 40.9302 78.69 40.7602C78.86 40.5902 79.04 40.4602 79.24 40.3802C79.5 40.2702 79.81 40.2202 80.15 40.2202C80.77 40.2202 81.27 40.4102 81.64 40.8002C82.01 41.1902 82.2 41.7202 82.2 42.4102C82.2 43.0902 82.02 43.6302 81.65 44.0102C81.28 44.4002 80.78 44.5902 80.16 44.5902C79.53 44.5902 79.03 44.4002 78.66 44.0202C78.29 43.6202 78.1 43.1002 78.1 42.4202ZM78.98 42.3902C78.98 42.8702 79.09 43.2302 79.31 43.4802C79.53 43.7302 79.81 43.8502 80.15 43.8502C80.49 43.8502 80.77 43.7302 80.99 43.4802C81.21 43.2402 81.31 42.8702 81.31 42.3802C81.31 41.9002 81.2 41.5402 80.99 41.3002C80.78 41.0602 80.49 40.9502 80.14 40.9502C79.79 40.9502 79.51 41.0702 79.29 41.3102C79.09 41.5502 78.98 41.9102 78.98 42.3902ZM85.42 40.2902H88.57V41.0002H86.27V41.9802H87.41C87.73 41.9802 87.98 42.0202 88.19 42.0902C88.4 42.1702 88.57 42.3102 88.72 42.5202C88.86 42.7302 88.94 42.9702 88.94 43.2502C88.94 43.5302 88.86 43.7802 88.72 43.9802C88.57 44.1802 88.41 44.3202 88.22 44.4002C88.03 44.4702 87.76 44.5102 87.42 44.5102H85.43V40.2902H85.42ZM86.27 43.7902H87.1C87.36 43.7902 87.55 43.7802 87.66 43.7502C87.77 43.7302 87.86 43.6702 87.94 43.5802C88.02 43.4902 88.06 43.3802 88.06 43.2402C88.06 43.0402 87.99 42.9102 87.85 42.8202C87.71 42.7302 87.47 42.6902 87.14 42.6902H86.27V43.7902V43.7902ZM92.17 44.5102V40.2902H93.02V41.9502H94.68V40.2902H95.53V44.5102H94.68V42.6702H93.02V44.5102H92.17ZM98.96 40.2902H99.76V43.1002L101.47 40.2902H102.32V44.5102H101.52V41.7502L99.81 44.5102H98.96V40.2902ZM105.65 40.2902H106.5V41.3002C106.5 41.6202 106.52 41.8402 106.54 41.9502C106.56 42.0502 106.63 42.1502 106.75 42.2302C106.87 42.3102 107.04 42.3502 107.27 42.3502C107.45 42.3502 107.61 42.3302 107.76 42.2902C107.9 42.2502 108.02 42.1902 108.12 42.1102V40.3002H108.98V44.5102H108.12V42.8102C107.95 42.8802 107.78 42.9402 107.61 42.9802C107.44 43.0202 107.28 43.0402 107.12 43.0402C106.7 43.0402 106.35 42.9402 106.06 42.7402C105.78 42.5402 105.64 42.2002 105.64 41.7102V40.2902H105.65ZM116.19 44.5102H115.27L114.91 43.5502H113.22L112.87 44.5102H111.97L113.61 40.2902H114.51L116.19 44.5102ZM114.63 42.8402L114.04 41.2802L113.47 42.8402H114.63ZM122.28 40.2902H123.14V42.0902C123.33 42.0702 123.46 42.0202 123.52 41.9402C123.59 41.8602 123.69 41.6402 123.83 41.2802C124 40.8302 124.18 40.5402 124.36 40.4302C124.54 40.3202 124.82 40.2702 125.22 40.2702C125.24 40.2702 125.28 40.2702 125.34 40.2702V40.9002H125.22C125.05 40.9002 124.92 40.9202 124.84 40.9602C124.76 41.0002 124.7 41.0702 124.65 41.1602C124.6 41.2502 124.53 41.4302 124.43 41.7002C124.38 41.8502 124.32 41.9702 124.26 42.0702C124.2 42.1702 124.09 42.2602 123.94 42.3502C124.13 42.4002 124.28 42.5102 124.41 42.6802C124.53 42.8402 124.67 43.0702 124.82 43.3702L125.39 44.5202H124.39L123.88 43.4302C123.87 43.4202 123.86 43.3902 123.84 43.3402C123.83 43.3202 123.79 43.2602 123.73 43.1402C123.62 42.9302 123.53 42.8002 123.46 42.7502C123.39 42.7002 123.28 42.6702 123.14 42.6702V44.5102H122.28V40.2902ZM128.22 42.4202C128.22 41.9902 128.29 41.6302 128.41 41.3402C128.51 41.1302 128.64 40.9302 128.81 40.7602C128.97 40.5902 129.16 40.4602 129.35 40.3802C129.61 40.2702 129.92 40.2202 130.26 40.2202C130.88 40.2202 131.38 40.4102 131.75 40.8002C132.13 41.1902 132.31 41.7202 132.31 42.4102C132.31 43.0902 132.13 43.6302 131.76 44.0102C131.39 44.4002 130.9 44.5902 130.27 44.5902C129.65 44.5902 129.15 44.4002 128.77 44.0202C128.41 43.6202 128.22 43.1002 128.22 42.4202ZM129.1 42.3902C129.1 42.8702 129.21 43.2302 129.43 43.4802C129.65 43.7302 129.93 43.8502 130.27 43.8502C130.61 43.8502 130.89 43.7302 131.11 43.4802C131.33 43.2402 131.44 42.8702 131.44 42.3802C131.44 41.9002 131.33 41.5402 131.12 41.3002C130.91 41.0602 130.63 40.9502 130.28 40.9502C129.93 40.9502 129.64 41.0702 129.43 41.3102C129.21 41.5502 129.1 41.9102 129.1 42.3902ZM135.5 44.5102V40.2902H136.78L137.53 43.1702L138.28 40.2902H139.56V44.5102H138.77V41.1902L137.94 44.5102H137.12L136.29 41.1902V44.5102H135.5ZM142.96 40.2902H146.31V44.5102H145.46V41.0002H143.82V44.5002H142.96V40.2902ZM153.52 44.5102H152.6L152.24 43.5502H150.55L150.2 44.5102H149.3L150.94 40.2902H151.84L153.52 44.5102ZM151.96 42.8402L151.37 41.2802L150.8 42.8402H151.96ZM156.51 44.5102V40.2902H157.37V41.9502H159.03V40.2902H159.88V44.5102H159.03V42.6702H157.37V44.5102H156.51ZM163.27 44.5102V40.2902H164.12V44.5102H163.27ZM169.98 44.5102V42.7502H169.81C169.54 42.7502 169.35 42.7902 169.24 42.8702C169.13 42.9502 168.94 43.1902 168.67 43.5902L168.06 44.5102H167.04L167.56 43.6902C167.76 43.3602 167.92 43.1402 168.04 43.0002C168.16 42.8702 168.31 42.7502 168.49 42.6502C168.09 42.5902 167.81 42.4602 167.64 42.2402C167.47 42.0302 167.38 41.7802 167.38 41.4802C167.38 41.2202 167.45 41.0002 167.57 40.8002C167.7 40.6002 167.87 40.4702 168.08 40.4002C168.29 40.3302 168.61 40.3002 169.03 40.3002H170.82V44.5202H169.98V44.5102ZM169.98 41.0002H169.32C168.98 41.0002 168.76 41.0102 168.66 41.0202C168.55 41.0402 168.46 41.0902 168.39 41.1802C168.31 41.2702 168.27 41.3802 168.27 41.5202C168.27 41.6702 168.31 41.7902 168.38 41.8702C168.45 41.9602 168.55 42.0102 168.66 42.0302C168.77 42.0502 169 42.0602 169.36 42.0602H169.99V41.0002H169.98Z" fill="#1B1918"/>
</svg>
